<svg width="338" height="76" viewBox="0 0 338 76" fill="none" xmlns="http://www.w3.org/2000/svg">
<path d="M13.504 57V21.256H2.4V12.2H33.632V21.256H22.528V57H13.504ZM15.968 54.6H20.064V18.728H31.264V14.6H4.768V18.728H15.968V54.6ZM46.1745 57L39.5825 50.408V22.44H48.6385V45.992L50.5905 47.944H58.4305L61.6305 44.744V22.44H70.6545V63.208L64.0625 69.8H41.1825V60.776H59.0385L61.6305 58.184V56.36L60.9905 57H46.1745ZM43.9665 67.4H62.5905L68.2225 61.64V24.872H64.1265V45.512L59.1985 50.376H49.4065L46.1745 47.144V24.872H42.0465V49.128L47.3905 54.504H60.2865L64.1265 50.664V59.368L60.2865 63.272H43.9665V67.4ZM78.625 69.096V29.032L85.217 22.44H103.969L110.561 29.032V50.408L103.969 57H88.289L87.681 56.36V69.096H78.625ZM81.089 66.632H85.185V50.792L88.737 54.344H102.849L108.225 48.968V30.248L102.849 24.872H86.625L81.089 30.408V66.632ZM90.241 47.944H99.553L101.505 45.992V33.448L99.553 31.464H89.633L87.681 33.448V45.384L90.241 47.944ZM89.505 50.248L85.185 45.96V32.392L88.641 29H100.833L104.129 32.232V46.984L100.833 50.248H89.505ZM144.047 22.44L150.639 29.032V38.152L144.047 44.744H126.639V45.992L128.591 47.944H150.191V57H124.175L117.583 50.408V29.032L124.175 22.44H144.047ZM140.751 29L144.047 32.264V35.656L141.263 38.44H123.983V32.424L127.407 29H140.751ZM142.767 24.904H125.391L119.855 30.44V49.16L125.263 54.568H147.567V50.472H127.279L123.983 47.176V42.376H142.927L148.143 37.192V30.28L142.767 24.904ZM139.631 31.496H128.591L126.639 33.448V36.008H140.271L141.615 34.664V33.448L139.631 31.496Z" fill="#7EE787"/>
<path d="M168.952 57L162.36 50.408V18.792L168.952 12.2H188.824L195.448 18.792V29.096H186.392V23.208L184.44 21.256H173.368L171.416 23.208V45.992L173.368 47.944H184.44L186.392 45.992V40.104H195.448V50.408L188.824 57H168.952ZM170.712 53.448H187.064L191.928 48.584V43.24H189.944V47.752L186.168 51.464H171.608L167.832 47.752V21.352L171.608 17.608H186.168L189.944 21.352V25.864H191.928V20.488L187.064 15.656H170.712L165.848 20.488V48.584L170.712 53.448ZM202.333 57V47.976H208.541V31.944L208.061 31.464H202.397V22.44H210.493L212.669 25L215.133 22.44H227.581L234.589 29.448L227.613 36.232L223.197 31.496H219.549L217.597 33.448V48.008H223.805V57H202.333ZM205.629 53.48H220.509V51.496H214.045V31.368L217.373 28.04H225.309L228.125 31.176L229.629 29.768L226.205 26.088H216.509L212.957 29.64L209.693 26.088H205.629V28.04H209.117L212.061 31.272V51.496H205.629V53.48ZM245.675 57L239.083 50.408V41.288L245.675 34.696H263.083V33.448L261.131 31.496H239.531V22.44H265.547L272.139 29.032V50.408L265.547 57H245.675ZM248.459 51.528L244.619 47.752V43.4L248.043 40.008H266.923V47.496L262.827 51.528H248.459ZM247.563 53.512H263.723L268.907 48.328V30.888L263.947 25.928H243.275V27.912H263.051L266.923 31.72V38.088H247.307L242.667 42.664V48.584L247.563 53.512ZM250.091 47.944H261.131L263.083 45.992V43.432H249.451L248.107 44.776V45.992L250.091 47.944ZM284.552 57V31.464H278.088V22.44H284.552V15.592L291.144 9H303.624V17.416H295.016L293.608 18.856V22.44H303.624V31.464H293.608V57H284.552ZM288.072 53.608H290.056V27.912H300.296V25.928H290.056V17.736L293.672 14.088H300.296V12.232H292.84L288.072 16.968V25.928H281.64V27.912H288.072V53.608ZM316.533 57V31.464H308.565V22.44H316.533V13.672H325.589V22.44H333.525V31.464H325.589V47.944H333.301V57H316.533ZM320.085 53.512H329.845V51.528H322.069V27.848H330.069V25.896H322.069V17.16H320.085V25.896H312.053V27.848H320.085V53.512Z" fill="#E6E6E6"/>
<line x1="156.5" x2="156.5" y2="76" stroke="#7EE787" stroke-width="3"/>
</svg>
